<?xml version="1.0" encoding="utf-8"?>
<!-- Generator: Adobe Illustrator 16.0.0, SVG Export Plug-In . SVG Version: 6.00 Build 0)  -->
<!DOCTYPE svg PUBLIC "-//W3C//DTD SVG 1.1//EN" "http://www.w3.org/Graphics/SVG/1.1/DTD/svg11.dtd">
<svg version="1.1" id="Capa_1" xmlns="http://www.w3.org/2000/svg" xmlns:xlink="http://www.w3.org/1999/xlink" x="0px" y="0px"
	 width="206.833px" height="33.83px" viewBox="0 0 206.833 33.83" enable-background="new 0 0 206.833 33.83" xml:space="preserve">
<g>
	<g>
		<path fill="#FFFFFF" d="M54.299,3.12v3.495h4.55v2.057h-4.55v5.048h-2.635V1.071h8.057V3.12H54.299z"/>
		<path fill="#FFFFFF" d="M71.56,13.72h-2.032c-0.229,0-0.412-0.052-0.557-0.161c-0.14-0.107-0.245-0.245-0.315-0.413L67.8,10.73
			h-5.04l-0.853,2.416c-0.058,0.144-0.16,0.276-0.307,0.395c-0.145,0.121-0.327,0.179-0.549,0.179h-2.047l4.943-12.649h2.678
			L71.56,13.72z M67.166,8.917l-1.37-3.871c-0.082-0.204-0.167-0.442-0.257-0.716c-0.089-0.272-0.175-0.568-0.257-0.889
			c-0.082,0.327-0.167,0.626-0.257,0.903c-0.093,0.276-0.179,0.516-0.257,0.72l-1.362,3.854L67.166,8.917L67.166,8.917z"/>
		<path fill="#FFFFFF" d="M80.948,10.608c0.148,0,0.269,0.052,0.366,0.158l1.04,1.105c-0.51,0.652-1.148,1.146-1.903,1.482
			c-0.759,0.337-1.662,0.506-2.709,0.506c-0.946,0-1.798-0.162-2.553-0.485c-0.755-0.321-1.397-0.771-1.926-1.347
			c-0.53-0.576-0.938-1.257-1.223-2.049c-0.284-0.791-0.428-1.652-0.428-2.589c0-0.628,0.07-1.226,0.207-1.792
			c0.136-0.566,0.334-1.088,0.595-1.564c0.265-0.477,0.58-0.907,0.945-1.29c0.37-0.384,0.787-0.71,1.254-0.981
			c0.463-0.271,0.973-0.477,1.521-0.619C76.683,1,77.266,0.929,77.889,0.929c0.467,0,0.907,0.041,1.319,0.123
			c0.417,0.082,0.806,0.194,1.168,0.341c0.358,0.144,0.692,0.321,0.996,0.527c0.303,0.206,0.58,0.43,0.825,0.675l-0.883,1.202
			C81.263,3.875,81.197,3.941,81.115,4c-0.082,0.058-0.19,0.087-0.331,0.087c-0.14,0-0.28-0.048-0.424-0.147
			c-0.141-0.099-0.316-0.21-0.521-0.333c-0.207-0.121-0.467-0.231-0.779-0.331c-0.311-0.099-0.705-0.147-1.179-0.147
			c-0.529,0-1.016,0.095-1.456,0.288c-0.443,0.191-0.821,0.469-1.14,0.833c-0.315,0.362-0.561,0.81-0.735,1.337
			c-0.175,0.529-0.261,1.131-0.261,1.806c0,0.68,0.093,1.287,0.284,1.818c0.187,0.531,0.447,0.98,0.774,1.347
			c0.332,0.366,0.712,0.644,1.153,0.833c0.439,0.188,0.907,0.282,1.409,0.282c0.296,0,0.564-0.014,0.806-0.042
			c0.241-0.029,0.463-0.079,0.669-0.148c0.206-0.07,0.4-0.159,0.583-0.271c0.183-0.111,0.37-0.249,0.557-0.418
			c0.062-0.053,0.129-0.096,0.199-0.131C80.792,10.626,80.866,10.608,80.948,10.608z"/>
		<path fill="#FFFFFF" d="M89.005,11.628c0.424,0,0.805-0.071,1.144-0.214c0.335-0.143,0.623-0.344,0.853-0.605
			c0.233-0.261,0.412-0.578,0.533-0.95c0.121-0.372,0.183-0.792,0.183-1.257V1.071h2.616v7.531c0,0.769-0.125,1.473-0.37,2.115
			c-0.25,0.642-0.6,1.195-1.059,1.66c-0.46,0.465-1.02,0.829-1.678,1.09c-0.653,0.263-1.397,0.394-2.222,0.394
			c-0.826,0-1.569-0.131-2.227-0.394c-0.661-0.261-1.219-0.625-1.678-1.09s-0.813-1.018-1.059-1.66
			c-0.249-0.642-0.374-1.347-0.374-2.115V1.071h2.616v7.531c0,0.465,0.062,0.885,0.183,1.257c0.125,0.372,0.3,0.689,0.533,0.95
			c0.233,0.261,0.518,0.463,0.856,0.605C88.19,11.558,88.576,11.628,89.005,11.628z"/>
		<path fill="#FFFFFF" d="M104.333,11.593v2.126h-7.505V1.071h2.616v10.522H104.333z"/>
		<path fill="#FFFFFF" d="M113.357,3.18h-3.698v10.54h-2.621V3.18h-3.699V1.071h10.019L113.357,3.18L113.357,3.18z"/>
		<path fill="#FFFFFF" d="M124.769,13.72h-2.031c-0.227,0-0.413-0.052-0.553-0.161c-0.144-0.107-0.25-0.245-0.319-0.413
			l-0.853-2.416h-5.04l-0.855,2.416c-0.06,0.144-0.16,0.276-0.304,0.395c-0.146,0.121-0.328,0.179-0.549,0.179h-2.052l4.947-12.649
			h2.674L124.769,13.72z M120.375,8.917l-1.371-3.871c-0.082-0.204-0.168-0.442-0.256-0.716c-0.09-0.272-0.177-0.568-0.258-0.889
			c-0.082,0.327-0.168,0.626-0.257,0.903c-0.09,0.276-0.176,0.516-0.258,0.72l-1.356,3.854L120.375,8.917L120.375,8.917z"/>
		<path fill="#FFFFFF" d="M137.277,7.391c0,0.925-0.151,1.773-0.463,2.55s-0.751,1.444-1.319,2
			c-0.563,0.559-1.244,0.994-2.043,1.308c-0.793,0.315-1.678,0.47-2.65,0.47h-4.864V1.071h4.864c0.974,0,1.857,0.156,2.65,0.471
			c0.799,0.313,1.479,0.751,2.043,1.312c0.568,0.56,1.008,1.228,1.319,2S137.277,6.473,137.277,7.391z M134.596,7.391
			c0-0.663-0.09-1.259-0.266-1.788c-0.17-0.527-0.424-0.975-0.746-1.343c-0.328-0.366-0.725-0.648-1.191-0.845
			c-0.467-0.198-0.999-0.295-1.592-0.295h-2.23v8.551h2.23c0.593,0,1.125-0.098,1.592-0.292c0.468-0.195,0.863-0.475,1.191-0.844
			c0.322-0.37,0.576-0.819,0.746-1.347C134.506,8.658,134.596,8.059,134.596,7.391z"/>
		<path fill="#FFFFFF" d="M154.688,7.391c0,0.925-0.152,1.773-0.464,2.55s-0.752,1.444-1.319,2
			c-0.564,0.559-1.246,0.994-2.043,1.308c-0.795,0.315-1.678,0.47-2.65,0.47h-4.864V1.071h4.864c0.974,0,1.855,0.156,2.65,0.471
			c0.797,0.313,1.479,0.751,2.043,1.312c0.567,0.56,1.008,1.228,1.319,2S154.688,6.473,154.688,7.391z M152.006,7.391
			c0-0.663-0.09-1.259-0.266-1.788c-0.172-0.527-0.425-0.975-0.748-1.343c-0.326-0.366-0.724-0.648-1.189-0.845
			c-0.469-0.198-1.002-0.295-1.592-0.295h-2.23v8.551h2.23c0.59,0,1.123-0.098,1.592-0.292c0.467-0.195,0.863-0.475,1.189-0.844
			c0.323-0.37,0.576-0.819,0.748-1.347C151.917,8.658,152.006,8.059,152.006,7.391z"/>
		<path fill="#FFFFFF" d="M159.249,3.12v3.252h4.219v1.979h-4.219v3.32h5.422v2.049h-8.058V1.071h8.058V3.12H159.249z"/>
		<path fill="#FFFFFF" d="M10.458,29.719c0.148,0,0.269,0.052,0.366,0.156l1.04,1.104c-0.51,0.654-1.148,1.147-1.903,1.482
			c-0.759,0.339-1.662,0.506-2.709,0.506c-0.946,0-1.798-0.158-2.553-0.482c-0.755-0.322-1.397-0.771-1.927-1.346
			c-0.529-0.576-0.938-1.258-1.222-2.052c-0.284-0.791-0.428-1.649-0.428-2.589c0-0.626,0.07-1.227,0.206-1.79
			c0.136-0.567,0.335-1.09,0.596-1.563c0.265-0.479,0.58-0.906,0.945-1.293c0.37-0.381,0.787-0.707,1.254-0.979
			c0.463-0.271,0.973-0.478,1.521-0.618s1.133-0.214,1.755-0.214c0.467,0,0.907,0.041,1.32,0.122
			c0.416,0.082,0.805,0.193,1.167,0.341c0.358,0.146,0.692,0.321,0.996,0.527c0.303,0.208,0.58,0.429,0.825,0.675l-0.884,1.202
			c-0.05,0.077-0.117,0.144-0.198,0.202c-0.082,0.059-0.19,0.086-0.331,0.086c-0.14,0-0.28-0.047-0.424-0.147
			c-0.141-0.098-0.315-0.21-0.521-0.332c-0.207-0.12-0.467-0.231-0.779-0.329c-0.311-0.102-0.705-0.147-1.179-0.147
			c-0.529,0-1.016,0.093-1.456,0.286c-0.444,0.19-0.821,0.469-1.141,0.834c-0.315,0.361-0.561,0.81-0.735,1.334
			c-0.175,0.529-0.261,1.134-0.261,1.807c0,0.682,0.093,1.289,0.284,1.818c0.187,0.531,0.447,0.979,0.774,1.347
			c0.331,0.366,0.712,0.646,1.152,0.832c0.439,0.19,0.906,0.285,1.409,0.285c0.296,0,0.564-0.017,0.806-0.043
			c0.241-0.031,0.463-0.078,0.669-0.147c0.206-0.07,0.401-0.16,0.583-0.273c0.183-0.107,0.37-0.247,0.557-0.416
			c0.063-0.055,0.129-0.098,0.199-0.133S10.377,29.719,10.458,29.719z"/>
		<path fill="#FFFFFF" d="M15.97,32.829h-2.631V20.181h2.631V32.829z"/>
		<path fill="#FFFFFF" d="M21.255,22.231v3.248h4.219v1.981h-4.219v3.32h5.421v2.047H18.62V20.181h8.057v2.051H21.255L21.255,22.231
			z"/>
		<path fill="#FFFFFF" d="M39.466,20.181v12.648h-1.351c-0.203,0-0.374-0.031-0.514-0.098c-0.141-0.07-0.276-0.184-0.413-0.347
			l-6.301-8.022c0.016,0.207,0.031,0.406,0.039,0.604c0.008,0.199,0.012,0.382,0.012,0.55v7.313H28.63V20.181h1.378
			c0.109,0,0.202,0.004,0.28,0.012c0.082,0.011,0.151,0.029,0.213,0.063c0.066,0.031,0.125,0.074,0.183,0.126
			c0.059,0.053,0.125,0.123,0.195,0.209l6.344,8.055c-0.023-0.221-0.04-0.432-0.051-0.638c-0.011-0.206-0.019-0.405-0.019-0.592
			v-7.233h2.313V20.181z"/>
		<path fill="#FFFFFF" d="M50.729,29.719c0.148,0,0.269,0.052,0.366,0.156l1.04,1.104c-0.51,0.654-1.149,1.147-1.903,1.482
			c-0.759,0.339-1.662,0.506-2.709,0.506c-0.946,0-1.798-0.158-2.553-0.482c-0.755-0.322-1.397-0.771-1.927-1.346
			c-0.529-0.576-0.938-1.258-1.222-2.052c-0.284-0.791-0.428-1.649-0.428-2.589c0-0.626,0.07-1.227,0.206-1.79
			c0.137-0.567,0.335-1.09,0.596-1.563c0.265-0.479,0.58-0.906,0.945-1.293c0.37-0.381,0.786-0.707,1.253-0.979
			c0.463-0.271,0.973-0.478,1.521-0.618c0.549-0.143,1.133-0.214,1.755-0.214c0.467,0,0.907,0.041,1.319,0.122
			c0.417,0.082,0.806,0.193,1.168,0.341c0.358,0.146,0.693,0.321,0.996,0.527c0.304,0.208,0.58,0.429,0.825,0.675l-0.883,1.202
			c-0.05,0.077-0.117,0.144-0.199,0.202c-0.082,0.058-0.191,0.086-0.331,0.086c-0.141,0-0.28-0.047-0.424-0.147
			c-0.14-0.098-0.315-0.21-0.521-0.332c-0.206-0.12-0.467-0.231-0.778-0.329c-0.312-0.102-0.705-0.147-1.18-0.147
			c-0.529,0-1.016,0.093-1.456,0.286c-0.444,0.19-0.821,0.469-1.14,0.834c-0.315,0.361-0.561,0.81-0.736,1.334
			c-0.175,0.529-0.261,1.134-0.261,1.807c0,0.682,0.094,1.289,0.284,1.818c0.187,0.531,0.448,0.979,0.774,1.347
			c0.331,0.366,0.712,0.646,1.152,0.832c0.44,0.19,0.907,0.285,1.409,0.285c0.296,0,0.564-0.017,0.806-0.043
			c0.241-0.031,0.463-0.078,0.669-0.147c0.207-0.07,0.401-0.16,0.584-0.273c0.183-0.107,0.37-0.247,0.557-0.416
			c0.062-0.055,0.128-0.098,0.199-0.133C50.574,29.733,50.648,29.719,50.729,29.719z"/>
		<path fill="#FFFFFF" d="M56.241,32.829H53.61V20.181h2.631V32.829z"/>
		<path fill="#FFFFFF" d="M69.964,32.829h-2.031c-0.226,0-0.413-0.051-0.553-0.16c-0.145-0.107-0.249-0.244-0.32-0.412l-0.852-2.417
			h-5.04l-0.856,2.417c-0.058,0.145-0.159,0.276-0.304,0.393c-0.144,0.123-0.327,0.181-0.549,0.181h-2.051l4.946-12.647h2.674
			L69.964,32.829z M65.57,28.026l-1.37-3.869c-0.082-0.206-0.167-0.443-0.257-0.717c-0.089-0.271-0.175-0.567-0.257-0.892
			c-0.082,0.327-0.167,0.627-0.257,0.903c-0.089,0.275-0.175,0.518-0.257,0.72l-1.358,3.854H65.57z"/>
		<path fill="#FFFFFF" d="M77.986,22.604c-0.082,0.131-0.164,0.229-0.249,0.291c-0.085,0.063-0.195,0.09-0.327,0.09
			c-0.129,0-0.265-0.043-0.413-0.131c-0.147-0.092-0.323-0.188-0.521-0.293c-0.195-0.104-0.424-0.203-0.678-0.291
			c-0.257-0.096-0.556-0.138-0.899-0.138c-0.603,0-1.059,0.138-1.362,0.404c-0.299,0.271-0.451,0.623-0.451,1.06
			c0,0.279,0.082,0.51,0.249,0.692c0.164,0.185,0.381,0.343,0.654,0.476c0.268,0.135,0.576,0.254,0.918,0.357
			c0.343,0.104,0.697,0.222,1.055,0.346c0.362,0.125,0.712,0.273,1.054,0.44c0.343,0.167,0.65,0.382,0.923,0.634
			c0.269,0.258,0.486,0.568,0.653,0.938c0.164,0.371,0.246,0.816,0.246,1.347c0,0.575-0.097,1.116-0.3,1.618
			c-0.199,0.504-0.491,0.943-0.868,1.316c-0.378,0.373-0.845,0.67-1.397,0.883c-0.557,0.22-1.188,0.323-1.888,0.323
			c-0.4,0-0.802-0.038-1.199-0.12c-0.401-0.08-0.782-0.195-1.152-0.343c-0.37-0.144-0.716-0.317-1.042-0.521
			c-0.323-0.202-0.608-0.43-0.853-0.682l0.767-1.236c0.063-0.096,0.148-0.168,0.253-0.23s0.214-0.094,0.331-0.094
			c0.156,0,0.324,0.059,0.499,0.175c0.175,0.118,0.374,0.246,0.599,0.386c0.229,0.141,0.491,0.266,0.79,0.383
			c0.3,0.115,0.658,0.174,1.078,0.174c0.607,0,1.082-0.14,1.417-0.416c0.335-0.279,0.498-0.696,0.498-1.25
			c0-0.317-0.082-0.574-0.245-0.772c-0.167-0.198-0.385-0.362-0.65-0.499c-0.269-0.132-0.572-0.249-0.915-0.343
			c-0.347-0.097-0.697-0.201-1.055-0.318c-0.362-0.116-0.712-0.257-1.059-0.421c-0.342-0.158-0.646-0.377-0.914-0.642
			c-0.265-0.27-0.483-0.601-0.65-0.996c-0.163-0.394-0.245-0.886-0.245-1.472c0-0.473,0.09-0.927,0.276-1.371
			c0.187-0.438,0.459-0.832,0.821-1.174c0.358-0.345,0.802-0.621,1.328-0.832c0.529-0.207,1.128-0.313,1.81-0.313
			c0.762,0,1.467,0.118,2.113,0.354c0.65,0.234,1.199,0.562,1.646,0.98L77.986,22.604z"/>
		<path fill="#FFFFFF" d="M95.294,20.181l-5.095,12.648h-2.37l-5.091-12.648h2.11c0.226,0,0.413,0.053,0.553,0.161
			c0.145,0.107,0.249,0.246,0.319,0.413l2.736,7.291c0.104,0.271,0.209,0.568,0.311,0.893c0.102,0.321,0.195,0.66,0.284,1.015
			c0.074-0.354,0.155-0.692,0.249-1.015c0.09-0.323,0.188-0.619,0.292-0.893l2.717-7.291c0.059-0.145,0.163-0.275,0.312-0.396
			c0.148-0.119,0.331-0.178,0.552-0.178H95.294L95.294,20.181z"/>
		<path fill="#FFFFFF" d="M99.093,22.231v3.248h4.219v1.981h-4.219v3.32h5.422v2.047h-8.054V20.181h8.054v2.051H99.093
			L99.093,22.231z"/>
		<path fill="#FFFFFF" d="M115.424,22.29h-3.697v10.539h-2.624V22.29h-3.696v-2.109h10.018V22.29L115.424,22.29z"/>
		<path fill="#FFFFFF" d="M119.635,22.231v3.248h4.219v1.981h-4.219v3.32h5.422v2.047H117V20.181h8.057v2.051H119.635
			L119.635,22.231z"/>
		<path fill="#FFFFFF" d="M137.095,32.829h-2.362c-0.439,0-0.76-0.168-0.957-0.506l-2.406-3.876
			c-0.102-0.153-0.209-0.267-0.326-0.332c-0.121-0.069-0.297-0.104-0.528-0.104h-0.888v4.818h-2.615V20.181h3.974
			c0.884,0,1.64,0.092,2.269,0.274c0.627,0.185,1.142,0.438,1.543,0.765c0.399,0.322,0.691,0.713,0.879,1.163
			c0.188,0.448,0.281,0.945,0.281,1.486c0,0.417-0.06,0.813-0.182,1.188c-0.119,0.377-0.291,0.715-0.518,1.026
			c-0.225,0.308-0.506,0.58-0.836,0.817c-0.332,0.236-0.709,0.433-1.133,0.576c0.166,0.092,0.322,0.205,0.467,0.334
			c0.147,0.133,0.275,0.289,0.394,0.467L137.095,32.829z M130.969,26.17c0.425,0,0.789-0.055,1.098-0.16
			c0.307-0.108,0.561-0.257,0.76-0.446c0.197-0.188,0.342-0.408,0.436-0.666c0.094-0.256,0.141-0.533,0.141-0.836
			c0-0.601-0.201-1.063-0.6-1.395c-0.396-0.335-1.006-0.499-1.817-0.499h-1.358v4.002H130.969z"/>
		<path fill="#FFFFFF" d="M140.967,32.829h-2.635V20.181h2.635V32.829z"/>
		<path fill="#FFFFFF" d="M154.454,20.181v12.648h-1.352c-0.202,0-0.373-0.031-0.514-0.098c-0.141-0.07-0.276-0.184-0.412-0.347
			l-6.303-8.022c0.017,0.207,0.031,0.406,0.039,0.604c0.008,0.199,0.012,0.382,0.012,0.55v7.313h-2.307V20.181h1.377
			c0.108,0,0.201,0.004,0.28,0.012c0.081,0.011,0.151,0.029,0.214,0.063c0.065,0.031,0.124,0.074,0.184,0.126
			c0.058,0.053,0.125,0.123,0.195,0.209l6.342,8.055c-0.021-0.221-0.037-0.432-0.049-0.638c-0.013-0.206-0.021-0.405-0.021-0.592
			v-7.233h2.313V20.181z"/>
		<path fill="#FFFFFF" d="M168.176,32.829h-2.031c-0.225,0-0.412-0.051-0.553-0.16c-0.145-0.107-0.248-0.244-0.318-0.412
			l-0.854-2.417h-5.039l-0.856,2.417c-0.06,0.145-0.159,0.276-0.304,0.393c-0.145,0.123-0.327,0.181-0.549,0.181h-2.051
			l4.945-12.647h2.674L168.176,32.829z M163.782,28.026l-1.369-3.869c-0.082-0.206-0.168-0.443-0.258-0.717
			c-0.089-0.271-0.175-0.567-0.256-0.892c-0.082,0.327-0.168,0.627-0.258,0.903c-0.09,0.275-0.176,0.518-0.256,0.72l-1.359,3.854
			H163.782z"/>
		<path fill="#FFFFFF" d="M179.432,32.829h-2.362c-0.444,0-0.763-0.168-0.962-0.506l-2.404-3.876
			c-0.098-0.153-0.207-0.267-0.328-0.332c-0.115-0.069-0.295-0.104-0.524-0.104h-0.892v4.818h-2.614V20.181h3.978
			c0.885,0,1.639,0.092,2.266,0.274c0.627,0.185,1.145,0.438,1.545,0.765c0.4,0.322,0.693,0.713,0.881,1.163
			c0.186,0.448,0.275,0.945,0.275,1.486c0,0.417-0.06,0.813-0.176,1.188c-0.119,0.377-0.292,0.715-0.521,1.026
			c-0.225,0.308-0.506,0.58-0.836,0.817c-0.332,0.236-0.709,0.433-1.133,0.576c0.168,0.092,0.326,0.205,0.471,0.334
			c0.145,0.133,0.277,0.289,0.394,0.467L179.432,32.829z M173.301,26.17c0.425,0,0.791-0.055,1.099-0.16
			c0.312-0.108,0.563-0.257,0.759-0.446c0.198-0.188,0.342-0.408,0.437-0.666c0.094-0.256,0.141-0.533,0.141-0.836
			c0-0.601-0.198-1.063-0.596-1.395c-0.399-0.335-1.004-0.499-1.817-0.499h-1.361v4.002H173.301z"/>
		<path fill="#FFFFFF" d="M183.299,32.829h-2.629V20.181h2.629V32.829z"/>
		<path fill="#FFFFFF" d="M197.023,32.829h-2.032c-0.225,0-0.41-0.051-0.553-0.16c-0.145-0.107-0.248-0.244-0.318-0.412
			l-0.853-2.417h-5.04l-0.855,2.417c-0.059,0.145-0.16,0.276-0.305,0.393c-0.145,0.123-0.326,0.181-0.549,0.181h-2.051l4.945-12.647
			h2.676L197.023,32.829z M192.629,28.026l-1.369-3.869c-0.081-0.206-0.168-0.443-0.258-0.717c-0.09-0.271-0.176-0.567-0.256-0.892
			c-0.082,0.327-0.168,0.627-0.259,0.903c-0.089,0.275-0.175,0.518-0.256,0.72l-1.358,3.854H192.629z"/>
		<path fill="#FFFFFF" d="M205.045,22.604c-0.082,0.131-0.164,0.229-0.25,0.291c-0.084,0.063-0.193,0.09-0.325,0.09
			c-0.13,0-0.267-0.043-0.413-0.131c-0.146-0.092-0.323-0.188-0.521-0.293c-0.193-0.104-0.425-0.203-0.677-0.291
			c-0.258-0.096-0.558-0.138-0.899-0.138c-0.604,0-1.059,0.138-1.361,0.404c-0.301,0.271-0.451,0.623-0.451,1.06
			c0,0.279,0.081,0.51,0.249,0.692c0.164,0.185,0.381,0.343,0.653,0.476c0.269,0.135,0.576,0.254,0.918,0.357
			c0.344,0.104,0.697,0.222,1.056,0.346c0.362,0.125,0.712,0.273,1.056,0.44c0.342,0.167,0.649,0.382,0.922,0.634
			c0.269,0.258,0.485,0.568,0.653,0.938c0.164,0.371,0.245,0.816,0.245,1.347c0,0.575-0.098,1.116-0.299,1.618
			c-0.199,0.504-0.491,0.943-0.868,1.316c-0.378,0.373-0.845,0.67-1.397,0.883c-0.557,0.22-1.188,0.323-1.888,0.323
			c-0.401,0-0.802-0.038-1.198-0.12c-0.4-0.08-0.781-0.195-1.151-0.343c-0.37-0.144-0.716-0.317-1.044-0.521
			c-0.323-0.202-0.606-0.43-0.854-0.682l0.768-1.236c0.064-0.096,0.148-0.168,0.254-0.23s0.214-0.094,0.33-0.094
			c0.156,0,0.324,0.059,0.498,0.175c0.176,0.118,0.373,0.246,0.601,0.386c0.229,0.141,0.49,0.266,0.789,0.383
			c0.302,0.115,0.659,0.174,1.078,0.174c0.606,0,1.082-0.14,1.417-0.416c0.335-0.279,0.499-0.696,0.499-1.25
			c0-0.317-0.082-0.574-0.246-0.772c-0.167-0.198-0.386-0.362-0.649-0.499c-0.269-0.132-0.572-0.249-0.914-0.343
			c-0.347-0.097-0.697-0.201-1.055-0.318c-0.361-0.116-0.714-0.257-1.061-0.421c-0.342-0.158-0.646-0.377-0.913-0.642
			c-0.265-0.27-0.483-0.601-0.65-0.996c-0.163-0.394-0.245-0.886-0.245-1.472c0-0.473,0.09-0.927,0.276-1.371
			c0.187-0.438,0.459-0.832,0.819-1.174c0.358-0.345,0.804-0.621,1.328-0.832c0.529-0.207,1.129-0.313,1.811-0.313
			c0.764,0,1.468,0.118,2.113,0.354c0.65,0.234,1.199,0.562,1.646,0.98L205.045,22.604z"/>
	</g>
	<g>
		<path fill="#FFFFFF" d="M8.863,1.096h4.433v0.053L12.917,1.96c-0.064,0.12-0.111,0.239-0.142,0.354
			c-0.031,0.114-0.047,0.237-0.047,0.369V8.49c0,0.789-0.128,1.511-0.385,2.166c-0.255,0.656-0.623,1.223-1.099,1.695
			c-0.477,0.475-1.059,0.844-1.742,1.109c-0.685,0.265-1.454,0.397-2.304,0.397c-0.858,0-1.629-0.133-2.314-0.397
			c-0.683-0.265-1.265-0.634-1.742-1.109c-0.478-0.473-0.844-1.039-1.098-1.695C1.792,10.001,1.667,9.279,1.667,8.49V2.78
			c0-0.162-0.018-0.306-0.049-0.433C1.585,2.221,1.538,2.092,1.476,1.96L1.094,1.149V1.096h4.437v0.053L5.15,1.96
			C5.087,2.081,5.041,2.2,5.01,2.314c-0.033,0.115-0.049,0.238-0.049,0.37v5.722c0,0.396,0.049,0.751,0.142,1.066
			C5.199,9.785,5.34,10.05,5.527,10.27c0.187,0.218,0.42,0.387,0.697,0.504c0.28,0.119,0.604,0.177,0.973,0.177
			c0.365,0,0.691-0.058,0.969-0.177c0.28-0.117,0.513-0.286,0.7-0.504c0.187-0.22,0.327-0.484,0.42-0.798
			C9.383,9.157,9.43,8.803,9.43,8.406V2.78c0-0.162-0.016-0.306-0.047-0.433C9.352,2.221,9.305,2.092,9.24,1.96L8.863,1.149V1.096z"
			/>
		<path fill="#FFFFFF" d="M18.706,13.72h-4.305v-0.05l0.379-0.812c0.057-0.121,0.104-0.238,0.139-0.35
			c0.035-0.111,0.05-0.238,0.05-0.376V2.78c0-0.162-0.015-0.306-0.046-0.433c-0.031-0.126-0.078-0.255-0.143-0.387l-0.379-0.812
			V1.096h2.907l6.161,5.523c-0.035-0.235-0.058-0.459-0.07-0.668c-0.012-0.21-0.016-0.422-0.016-0.634V2.78
			c0-0.162-0.016-0.306-0.047-0.433c-0.033-0.126-0.082-0.255-0.144-0.387l-0.379-0.812V1.096h4.307v0.053L26.739,1.96
			c-0.063,0.132-0.109,0.261-0.141,0.387C26.566,2.474,26.55,2.618,26.55,2.78v9.352c0,0.138,0.016,0.265,0.048,0.376
			c0.031,0.112,0.078,0.229,0.141,0.35l0.381,0.812v0.05h-4.126v-0.05l0.319-0.812c0.046-0.121,0.084-0.238,0.113-0.35
			c0.027-0.111,0.042-0.238,0.042-0.376v-1.251l-5.445-4.883c0.046,0.253,0.078,0.508,0.091,0.769
			c0.014,0.259,0.021,0.526,0.021,0.802v4.47c0,0.16,0.016,0.304,0.047,0.43c0.031,0.126,0.08,0.257,0.144,0.389l0.378,0.812v0.05
			H18.706z"/>
		<path fill="#FFFFFF" d="M28.378,13.669l0.381-0.812c0.062-0.132,0.108-0.263,0.142-0.389c0.031-0.126,0.046-0.271,0.046-0.43V2.78
			c0-0.162-0.015-0.306-0.046-0.433c-0.034-0.126-0.08-0.255-0.142-0.387l-0.381-0.812V1.096h4.437v0.053L32.433,1.96
			c-0.063,0.12-0.109,0.239-0.14,0.354c-0.033,0.114-0.048,0.237-0.048,0.369v8.319h3.244c0.138,0,0.271-0.006,0.397-0.014
			c0.126-0.009,0.253-0.027,0.379-0.056c0.127-0.029,0.259-0.068,0.394-0.117c0.134-0.048,0.278-0.113,0.426-0.194l0.847-0.448
			l0.042,0.025l-0.69,3.52h-8.905L28.378,13.669L28.378,13.669z"/>
		<path fill="#FFFFFF" d="M41.235,7.327c0-0.317,0.061-0.615,0.181-0.893c0.121-0.28,0.284-0.521,0.493-0.73
			c0.208-0.206,0.449-0.372,0.729-0.493c0.278-0.12,0.576-0.181,0.891-0.181c0.317,0,0.615,0.061,0.896,0.181
			c0.278,0.121,0.521,0.287,0.728,0.493c0.207,0.208,0.372,0.45,0.493,0.73c0.121,0.278,0.181,0.576,0.181,0.893
			c0,0.315-0.061,0.613-0.181,0.893c-0.121,0.278-0.286,0.521-0.493,0.729c-0.206,0.208-0.449,0.372-0.728,0.493
			c-0.28,0.12-0.578,0.181-0.896,0.181c-0.315,0-0.613-0.061-0.891-0.181c-0.28-0.121-0.521-0.284-0.729-0.493
			c-0.208-0.207-0.372-0.45-0.493-0.729C41.295,7.94,41.235,7.643,41.235,7.327z"/>
	</g>
</g>
</svg>
